Coordinates
nRows=6
nColumns=38

# SIMM Motion File Header:
name Coordinates
datacolumns 38
datarows 6
otherdata 1
range 1.49950000000000010000 1.50449999999999990000

Units are S.I. units (second, meters, Newtons, ...)
Angles are in degrees.

endheader
time	pelvis_tilt	pelvis_list	pelvis_rotation	pelvis_tx	pelvis_ty	pelvis_tz	hip_flexion_r	hip_adduction_r	hip_rotation_r	knee_angle_r	ankle_angle_r	subtalar_angle_r	mtp_angle_r	hip_flexion_l	hip_adduction_l	hip_rotation_l	knee_angle_l	ankle_angle_l	subtalar_angle_l	mtp_angle_l	lumbar_extension	lumbar_bending	lumbar_rotation	arm_flex_r	arm_add_r	arm_rot_r	elbow_flex_r	pro_sup_r	wrist_flex_r	wrist_dev_r	arm_flex_l	arm_add_l	arm_rot_l	elbow_flex_l	pro_sup_l	wrist_flex_l	wrist_dev_l
      1.49950000000000010000	     -6.33643535108270050000	     -6.76744795392210020000	     -5.11516096022247520000	      1.15121115919907210000	      0.96672644617170700000	     -0.43076005730952732000	     37.08886821652204400000	     13.92279619273106800000	      4.51014667462497170000	    -12.75361801010049100000	     13.91999852648305900000	      0.00000000000000000000	      0.00000000000000000000	    -25.71836863019914100000	      7.08873019942682440000	     10.25552590118196900000	    -44.12448463642559900000	    -16.53304875605853000000	      0.00000000000000000000	      0.00000000000000000000	     -9.34266087032741230000	     12.43385700841252900000	     -7.25307630221857290000	    -61.77393158210725200000	    -11.13393557203783700000	    -22.20326813077795000000	    132.18049827334573000000	     92.14694517673176200000	      0.00000000000000000000	      0.00000000000000000000	     -4.07916190620376100000	    -22.36509347615512400000	      7.97334986556638280000	    136.05125156350849000000	     88.99743234554510700000	      0.00000000000000000000	      0.00000000000000000000
      1.50049999999999990000	     -6.21781052993567500000	     -6.75813333138491950000	     -5.12508207961797170000	      1.15128095097103820000	      0.96655668492997238000	     -0.43070143257932580000	     36.75680866395641300000	     13.92914942452282300000	      4.57388070481084340000	    -12.35481497895611000000	     13.87021095826973000000	      0.00000000000000000112	      0.00000000000000000260	    -25.60194592944582200000	      7.06750047812017980000	      9.79368036078453130000	    -44.90767875721224600000	    -16.51439944348374000000	     -0.00000000000000000047	     -0.00000000000000000100	     -9.50274915184037640000	     12.40146006549472100000	     -7.15756307987596600000	    -61.55378760401536200000	    -11.17881973176824900000	    -22.16882131655986000000	    132.12859150692182000000	     92.17323301908871300000	     -0.00000000000000000003	      0.00000000000000000014	     -4.20132741801542410000	    -22.36982476626469600000	      7.96200281089486860000	    135.85607343821917000000	     88.86727064786313700000	     -0.00000000000000000074	     -0.00000000000000000154
      1.50150000000000010000	     -6.10124822864882970000	     -6.75016303058883250000	     -5.13309057733010740000	      1.15134666952391760000	      0.96637584923257880000	     -0.43064475304173849000	     36.43283915839386800000	     13.93466062096694500000	      4.62321079873192970000	    -11.98091072410964100000	     13.80892683153416000000	     -0.00000000000000000122	      0.00000000000000000106	    -25.47975427565132000000	      7.03847893312624610000	      9.32999925713795090000	    -45.69438524681474000000	    -16.49531831085491600000	     -0.00000000000000000138	      0.00000000000000000182	     -9.66027521576067020000	     12.37073744763063100000	     -7.06440920321582060000	    -61.32904435122345200000	    -11.22782965261388100000	    -22.13321325300528000000	    132.07361088617060000000	     92.20208083426079800000	     -0.00000000000000000050	     -0.00000000000000000203	     -4.32864827858564900000	    -22.37084824469555900000	      7.94629788589279420000	    135.65799942844558000000	     88.74026382717664800000	      0.00000000000000000211	     -0.00000000000000000151
      1.50249999999999990000	     -5.98651669516588750000	     -6.74344784284520320000	     -5.13880182832440010000	      1.15140861133321090000	      0.96618410574615365000	     -0.43059055182729777000	     36.11673095729854300000	     13.93929512569038700000	      4.65974347901293480000	    -11.63179717966326300000	     13.74348678336934000000	     -0.00000000000000001335	     -0.00000000000000001365	    -25.35226553340972400000	      7.00172618172691590000	      8.86564496643581460000	    -46.48419493094762300000	    -16.47542503597321700000	     -0.00000000000000000059	      0.00000000000000001418	     -9.81536119124245940000	     12.34163999289821900000	     -6.97392910936595100000	    -61.09970116166412900000	    -11.28098908196137100000	    -22.09639579737768900000	    132.01559896424897000000	     92.23339164212052300000	     -0.00000000000000000093	     -0.00000000000000000922	     -4.46114125503201910000	    -22.36827797683335800000	      7.92625764444021290000	    135.45713066709450000000	     88.61645599476402400000	      0.00000000000000000514	      0.00000000000000000025
      1.50350000000000010000	     -5.87307921450560940000	     -6.73795827728097230000	     -5.14129253885541180000	      1.15146691051937910000	      0.96598232457921351000	     -0.43054035220259990000	     35.80805571227339400000	     13.94255867352305200000	      4.68261557751266810000	    -11.30755323718518900000	     13.67394463241848100000	     -0.00000000000000003158	     -0.00000000000000003516	    -25.22019533691378600000	      6.95711505035097750000	      8.40227957240209910000	    -47.27681889144427200000	    -16.45423474631812900000	      0.00000000000000000031	      0.00000000000000002539	     -9.96841799083620650000	     12.31423935964111400000	     -6.88692503474034550000	    -60.86564032284383100000	    -11.33830666612718700000	    -22.05829826271545700000	    131.95459434215005000000	     92.26703998634691600000	     -0.00000000000000000098	     -0.00000000000000000610	     -4.59867699784190260000	    -22.36225662955204300000	      7.90193267929186940000	    135.25353505950335000000	     88.49589763406696400000	      0.00000000000000001114	      0.00000000000000000551
      1.50449999999999990000	     -5.76082368533090780000	     -6.73359431728750830000	     -5.14031321994186290000	      1.15152157796300680000	      0.96577065059420153000	     -0.43049465399427195000	     35.50691716031134600000	     13.94428644571438400000	      4.69142202958539210000	    -11.00853309610630100000	     13.60018077650719600000	     -0.00000000000000008785	     -0.00000000000000004624	    -25.08385985298287600000	      6.90481718064660300000	      7.94101958614759430000	    -48.07187436591134100000	    -16.43127044837095600000	      0.00000000000000000715	      0.00000000000000002877	    -10.11949350948704100000	     12.28849380509316100000	     -6.80360593121103290000	    -60.62687436359929900000	    -11.39979388766720600000	    -22.01888988038181300000	    131.89064377757492000000	     92.30287129980682400000	     -0.00000000000000000081	      0.00000000000000000144	     -4.74119646370761940000	    -22.35286611727233500000	      7.87338802262606490000	    135.04726290397011000000	     88.37869012029018700000	      0.00000000000000001630	      0.00000000000000001687
